<mxfile host="65bd71144e">
    <diagram id="3TlQKc49_nHwsOzywlwp" name="Page-1">
        <mxGraphModel dx="1651" dy="557" grid="1" gridSize="10" guides="1" tooltips="1" connect="1" arrows="1" fold="1" page="1" pageScale="1" pageWidth="850" pageHeight="1100" background="#ffffff" math="0" shadow="0">
            <root>
                <mxCell id="0"/>
                <mxCell id="1" parent="0"/>
                <mxCell id="8" value="" style="edgeStyle=none;html=1;labelBackgroundColor=default;startArrow=classic;startFill=1;" parent="1" source="3" target="23" edge="1">
                    <mxGeometry relative="1" as="geometry">
                        <mxPoint x="150" y="193" as="targetPoint"/>
                    </mxGeometry>
                </mxCell>
                <mxCell id="7" value="" style="edgeStyle=none;html=1;labelBackgroundColor=default;startArrow=classic;startFill=1;" parent="1" source="4" target="23" edge="1">
                    <mxGeometry relative="1" as="geometry">
                        <mxPoint x="150" y="151" as="targetPoint"/>
                    </mxGeometry>
                </mxCell>
                <mxCell id="4" value="iOS app" style="html=1;verticalLabelPosition=bottom;align=center;labelBackgroundColor=default;verticalAlign=top;strokeWidth=2;strokeColor=#0080F0;shadow=0;dashed=0;shape=mxgraph.ios7.icons.smartphone;aspect=fixed;" parent="1" vertex="1">
                    <mxGeometry x="106.75999999999999" y="148.28" width="34.75" height="57.92" as="geometry"/>
                </mxCell>
                <mxCell id="10" value="" style="edgeStyle=none;html=1;labelBackgroundColor=default;startArrow=classic;startFill=1;" parent="1" source="22" target="25" edge="1">
                    <mxGeometry relative="1" as="geometry">
                        <mxPoint x="384.11013215859043" y="214" as="sourcePoint"/>
                        <mxPoint x="362.7319587628865" y="300" as="targetPoint"/>
                    </mxGeometry>
                </mxCell>
                <mxCell id="12" value="" style="edgeStyle=none;html=1;labelBackgroundColor=default;startArrow=classic;startFill=1;" parent="1" source="22" target="24" edge="1">
                    <mxGeometry relative="1" as="geometry">
                        <mxPoint x="442" y="193.75" as="sourcePoint"/>
                        <mxPoint x="460" y="300" as="targetPoint"/>
                    </mxGeometry>
                </mxCell>
                <mxCell id="15" value="" style="edgeStyle=none;html=1;labelBackgroundColor=default;startArrow=classic;startFill=1;" parent="1" source="23" target="22" edge="1">
                    <mxGeometry relative="1" as="geometry">
                        <mxPoint x="310" y="174.37623762376234" as="sourcePoint"/>
                        <mxPoint x="360" y="173.140350877193" as="targetPoint"/>
                    </mxGeometry>
                </mxCell>
                <mxCell id="22" value="API" style="aspect=fixed;html=1;points=[];align=center;image;fontSize=12;image=img/lib/azure2/compute/App_Services.svg;labelBackgroundColor=default;" parent="1" vertex="1">
                    <mxGeometry x="425" y="142" width="64" height="64" as="geometry"/>
                </mxCell>
                <mxCell id="23" value="Load Balancer" style="aspect=fixed;html=1;points=[];align=center;image;fontSize=12;image=img/lib/azure2/networking/Front_Doors.svg;labelBackgroundColor=default;" parent="1" vertex="1">
                    <mxGeometry x="260" y="142" width="68" height="60" as="geometry"/>
                </mxCell>
                <mxCell id="24" value="Posts/Comments Database" style="aspect=fixed;html=1;points=[];align=center;image;fontSize=12;image=img/lib/azure2/databases/Azure_Cosmos_DB.svg;labelBackgroundColor=default;" parent="1" vertex="1">
                    <mxGeometry x="450" y="323.5" width="64" height="64" as="geometry"/>
                </mxCell>
                <mxCell id="25" value="Users Database" style="aspect=fixed;html=1;points=[];align=center;image;fontSize=12;image=img/lib/azure2/databases/Azure_Cosmos_DB.svg;labelBackgroundColor=default;" parent="1" vertex="1">
                    <mxGeometry x="300" y="323.5" width="64" height="64" as="geometry"/>
                </mxCell>
                <mxCell id="43" value="&lt;font style=&quot;font-size: 16px;&quot;&gt;&lt;b&gt;Notification Service - Starting Architecture&lt;br&gt;&lt;/b&gt;&lt;/font&gt;piers-sinclair.com" style="text;html=1;strokeColor=none;fillColor=none;align=center;verticalAlign=middle;whiteSpace=wrap;rounded=0;labelBackgroundColor=default;" parent="1" vertex="1">
                    <mxGeometry x="93.38" y="10" width="380" height="30" as="geometry"/>
                </mxCell>
                <mxCell id="3" value="Website Client" style="aspect=fixed;html=1;points=[];align=center;image;fontSize=12;image=img/lib/azure2/general/Browser.svg;labelBackgroundColor=default;" parent="1" vertex="1">
                    <mxGeometry x="93.38" y="274.3" width="61.5" height="49.2" as="geometry"/>
                </mxCell>
                <mxCell id="59" value="Android App" style="html=1;verticalLabelPosition=bottom;align=center;labelBackgroundColor=default;verticalAlign=top;strokeWidth=2;strokeColor=#0080F0;shadow=0;dashed=0;shape=mxgraph.ios7.icons.smartphone;aspect=fixed;" parent="1" vertex="1">
                    <mxGeometry x="106.75999999999999" y="50" width="34.75" height="57.92" as="geometry"/>
                </mxCell>
                <mxCell id="60" value="" style="edgeStyle=none;html=1;labelBackgroundColor=default;startArrow=classic;startFill=1;" parent="1" source="59" target="23" edge="1">
                    <mxGeometry relative="1" as="geometry">
                        <mxPoint x="270" y="172.54468061884359" as="targetPoint"/>
                        <mxPoint x="138.1300000000001" y="135.87194630139948" as="sourcePoint"/>
                    </mxGeometry>
                </mxCell>
            </root>
        </mxGraphModel>
    </diagram>
</mxfile>